<?xml version="1.0" standalone="no"?>
<!DOCTYPE svg PUBLIC "-//W3C//DTD SVG 20010904//EN"
 "http://www.w3.org/TR/2001/REC-SVG-20010904/DTD/svg10.dtd">
<svg version="1.0" xmlns="http://www.w3.org/2000/svg"
 width="3600.000000pt" height="1000.000000pt" viewBox="0 0 3600.000000 1000.000000"
 preserveAspectRatio="xMidYMid meet">

<g transform="translate(0.000000,1000.000000) scale(0.100000,-0.100000)"
fill="#000000" stroke="none">
<path d="M23660 4995 l0 -3835 125 0 125 0 0 3835 0 3835 -125 0 -125 0 0
-3835z"/>
<path d="M29697 7182 c-9 -4 -987 -977 -2172 -2162 -1512 -1512 -2155 -2161
-2155 -2176 0 -18 8 -22 53 -28 75 -9 1500 -7 1514 2 6 4 987 980 2178 2170
1503 1500 2165 2167 2163 2179 -3 17 -49 18 -783 20 -429 1 -788 -1 -798 -5z"/>
<path d="M30530 5018 c-1196 -1195 -2176 -2181 -2178 -2190 -2 -12 5 -19 24
-24 44 -11 1611 3 1631 15 10 5 727 719 1593 1585 l1575 1576 3 585 c2 575 2
585 -18 605 -19 19 -32 20 -237 20 l-218 0 -2175 -2172z"/>
<path d="M2843 7135 l-23 -16 0 -2072 c0 -1893 1 -2075 16 -2096 l16 -23 400
4 400 3 19 24 c19 23 19 49 19 803 0 572 3 784 11 794 16 20 1009 20 1149 0
102 -14 205 -55 272 -107 98 -78 132 -226 148 -649 6 -151 15 -303 20 -336 6
-34 10 -90 10 -125 0 -100 28 -296 48 -342 10 -23 26 -48 34 -55 13 -10 106
-13 432 -12 503 1 546 6 546 73 0 22 -9 38 -37 61 -84 71 -99 94 -123 184 -34
129 -39 201 -40 607 0 204 -4 386 -9 405 -5 19 -14 69 -21 110 -19 122 -67
258 -119 335 -37 56 -63 81 -131 127 -47 32 -97 60 -112 63 -32 7 -69 50 -62
69 5 13 46 36 64 36 16 0 104 63 173 125 124 109 232 282 279 445 52 178 52
178 52 395 0 174 -3 220 -18 270 -10 33 -24 83 -32 110 -21 75 -109 241 -170
321 -71 93 -191 207 -279 265 -84 55 -221 122 -290 142 -136 40 -166 48 -225
58 -46 8 -413 13 -1230 16 -1054 3 -1167 2 -1187 -12z m2097 -745 c148 -17
274 -82 343 -179 52 -72 76 -135 99 -256 16 -91 18 -119 9 -165 -6 -30 -15
-77 -20 -105 -28 -151 -157 -315 -268 -341 -15 -3 -59 -16 -98 -28 -68 -20
-85 -21 -672 -21 -565 0 -603 1 -620 18 -17 17 -18 52 -18 533 l0 516 24 19
c22 18 47 19 580 19 306 0 594 -5 641 -10z"/>
<path d="M16990 7130 c-19 -19 -20 -33 -20 -236 0 -129 4 -223 10 -235 10 -18
24 -19 318 -19 226 0 311 -3 320 -12 9 -9 12 -231 12 -938 0 -821 2 -928 16
-948 15 -22 17 -22 288 -22 268 0 322 5 354 35 11 9 13 189 12 933 l0 921 22
15 c18 11 87 15 327 20 194 4 309 10 315 16 7 7 12 94 14 234 3 196 1 226 -13
240 -15 15 -105 16 -986 16 -956 0 -969 0 -989 -20z"/>
<path d="M19438 7139 c-17 -9 -18 -77 -18 -1195 0 -798 3 -1192 10 -1205 10
-18 24 -19 270 -19 215 0 266 3 300 16 25 10 42 24 45 38 5 22 11 519 13 1077
2 314 7 369 36 369 15 0 20 -10 31 -70 4 -19 15 -53 25 -75 9 -22 30 -80 45
-130 16 -49 38 -115 50 -145 12 -30 39 -107 60 -170 20 -63 41 -119 45 -125 5
-5 15 -35 24 -65 22 -78 62 -193 79 -227 8 -15 18 -46 22 -68 3 -21 14 -53 22
-70 9 -16 20 -43 24 -60 21 -79 81 -239 100 -266 l21 -29 230 2 231 3 29 55
c15 30 35 77 42 105 14 48 30 93 96 275 18 47 38 106 45 132 7 25 20 57 28 70
9 12 19 41 22 63 4 22 16 56 26 75 11 19 26 58 33 85 8 28 29 88 46 135 17 47
38 107 46 134 7 27 20 59 28 71 8 12 18 40 22 61 3 21 14 53 22 69 9 17 21 54
28 83 10 44 56 119 74 121 3 1 4 -336 2 -749 -3 -742 -2 -750 18 -770 19 -19
32 -20 304 -20 l284 0 11 31 c13 36 14 2213 2 2312 -4 31 -13 63 -20 70 -9 9
-113 13 -430 15 -411 3 -418 3 -444 -18 -17 -14 -33 -41 -43 -78 -9 -31 -25
-75 -35 -97 -10 -22 -35 -85 -55 -140 -20 -55 -42 -112 -50 -127 -8 -15 -14
-35 -14 -45 0 -10 -7 -31 -16 -48 -14 -27 -32 -73 -84 -221 -10 -28 -25 -65
-34 -82 -9 -17 -16 -39 -16 -49 0 -10 -7 -31 -16 -48 -16 -29 -24 -50 -78
-202 -14 -40 -31 -85 -39 -100 -8 -15 -17 -44 -21 -64 -7 -41 -36 -72 -62 -67
-12 2 -22 20 -30 53 -7 28 -22 70 -32 95 -20 47 -32 80 -63 170 -11 30 -25 66
-33 80 -7 14 -16 39 -20 55 -4 17 -18 55 -30 85 -13 30 -29 71 -36 90 -7 19
-23 64 -37 100 -14 36 -36 94 -49 130 -12 36 -34 94 -48 130 -59 155 -79 210
-106 285 -16 44 -38 87 -50 97 -21 17 -55 18 -444 18 -267 0 -427 -4 -438 -11z"/>
<path d="M10253 7130 l-23 -9 0 -2075 0 -2075 22 -21 c21 -19 34 -20 334 -20
305 0 406 8 431 33 8 8 15 54 19 122 3 61 7 120 10 133 6 31 40 28 61 -5 34
-55 66 -89 136 -145 83 -67 250 -152 328 -167 30 -6 79 -18 109 -27 83 -25
381 -31 485 -10 135 26 224 55 324 103 238 115 417 295 570 572 24 43 73 165
87 216 7 28 22 77 33 110 22 70 45 170 63 275 20 120 16 649 -5 775 -31 180
-77 346 -117 425 -9 19 -20 48 -24 63 -7 31 -17 47 -119 202 -111 170 -258
307 -439 409 -26 14 -53 26 -60 26 -7 0 -29 8 -48 19 -19 10 -84 31 -145 47
-104 27 -122 29 -310 29 -186 0 -207 -2 -300 -27 -154 -42 -251 -85 -340 -152
-62 -47 -184 -167 -216 -213 -31 -45 -53 -54 -63 -27 -3 9 -6 327 -6 708 0
525 -3 695 -12 704 -15 15 -750 16 -785 2z m1619 -1729 c152 -23 292 -120 369
-256 17 -30 35 -57 39 -60 5 -3 12 -20 15 -38 4 -17 16 -48 26 -67 29 -55 71
-264 78 -390 16 -285 -31 -523 -148 -749 -34 -67 -164 -206 -211 -227 -14 -6
-47 -21 -75 -34 -72 -32 -210 -46 -332 -33 -94 11 -166 36 -272 97 -52 30
-211 212 -211 241 0 4 -9 19 -19 34 -11 15 -23 40 -27 57 -4 16 -15 45 -24 64
-10 19 -25 85 -34 145 -9 61 -22 133 -28 162 -6 30 -8 79 -4 115 3 35 11 104
16 153 26 246 41 306 118 465 37 75 62 110 118 166 148 149 332 196 606 155z"/>
<path d="M26561 7127 c-11 -15 -17 -1639 -6 -1658 4 -5 10 -9 15 -9 5 0 378
368 830 818 579 579 820 825 820 840 l0 22 -824 0 c-676 0 -826 -2 -835 -13z"/>
<path d="M7980 6131 c-224 -27 -448 -88 -570 -156 -14 -8 -43 -24 -65 -36 -22
-12 -92 -74 -155 -138 -104 -105 -120 -126 -167 -221 -64 -130 -95 -228 -123
-389 -18 -107 -19 -126 -7 -138 11 -12 79 -14 385 -14 244 0 378 3 391 10 14
8 24 33 37 87 29 132 102 233 197 275 167 71 486 68 622 -7 50 -27 135 -101
135 -117 0 -4 10 -29 22 -55 16 -34 22 -67 22 -122 1 -65 -3 -80 -25 -115 -49
-76 -173 -120 -419 -149 -74 -9 -141 -19 -148 -21 -16 -6 -195 -31 -282 -41
-36 -3 -85 -13 -110 -20 -25 -8 -65 -14 -90 -14 -25 0 -76 -12 -115 -25 -38
-14 -77 -25 -86 -25 -25 0 -215 -98 -284 -146 -113 -79 -263 -256 -281 -331
-4 -16 -13 -41 -21 -56 -8 -15 -26 -74 -40 -130 -52 -200 -32 -505 43 -663 13
-28 24 -54 24 -58 0 -12 99 -158 129 -190 14 -15 51 -47 81 -70 48 -38 86 -59
215 -125 16 -8 59 -23 95 -33 161 -46 202 -51 375 -51 163 0 176 2 309 37 77
20 149 42 160 50 12 7 36 17 54 20 17 4 34 12 38 17 3 5 28 22 56 37 28 15 65
35 82 44 17 9 75 55 129 102 130 113 142 112 158 -5 12 -85 25 -112 71 -156
36 -34 115 -62 235 -83 87 -16 503 -8 574 10 51 13 69 37 69 90 0 23 -14 44
-64 95 -71 71 -68 65 -92 190 -16 80 -19 198 -24 1095 -4 553 -10 1019 -14
1035 -38 148 -86 260 -146 334 -37 47 -195 181 -212 181 -5 0 -24 10 -41 23
-75 52 -232 110 -367 133 -47 8 -107 19 -135 25 -64 12 -539 20 -625 10z m720
-1967 c0 -202 -2 -230 -21 -286 -49 -144 -140 -239 -329 -345 -112 -63 -179
-78 -340 -78 -140 0 -147 1 -200 29 -74 38 -135 99 -167 166 -22 48 -26 68
-26 157 0 98 1 106 37 177 26 53 52 89 89 120 28 26 56 46 60 46 5 0 21 8 35
19 35 24 170 68 247 80 33 5 72 14 87 20 15 5 75 17 134 26 59 9 114 20 123
24 9 5 41 14 71 21 30 7 66 19 78 27 42 26 96 41 110 31 9 -8 12 -67 12 -234z"/>
<path d="M14825 6130 c-157 -25 -375 -86 -431 -121 -17 -10 -39 -19 -48 -19
-10 0 -32 -11 -50 -25 -18 -14 -37 -25 -41 -25 -10 0 -66 -37 -134 -88 -122
-91 -301 -302 -326 -382 -4 -14 -15 -36 -25 -50 -10 -14 -21 -36 -25 -50 -4
-14 -15 -38 -25 -55 -10 -16 -21 -46 -25 -65 -4 -19 -15 -51 -25 -70 -10 -19
-21 -55 -25 -80 -4 -25 -15 -75 -25 -112 -28 -103 -39 -225 -42 -473 -2 -140
21 -417 41 -500 11 -44 26 -107 34 -140 50 -203 157 -419 281 -570 163 -197
416 -343 706 -409 36 -8 83 -19 105 -25 22 -6 114 -16 204 -23 168 -12 392 -1
486 23 22 6 77 19 122 29 45 11 95 26 112 34 16 9 36 16 43 16 7 0 29 8 48 19
19 10 46 22 60 26 26 7 39 15 170 101 146 95 322 295 413 469 87 169 116 266
81 279 -23 9 -807 7 -820 -2 -7 -4 -19 -24 -27 -44 -24 -58 -151 -178 -227
-215 -64 -32 -169 -60 -265 -70 -65 -7 -282 38 -361 74 -186 84 -299 231 -355
463 -16 63 -29 129 -29 147 0 67 -67 63 1079 63 808 0 1037 2 1048 12 13 11
15 50 10 278 -4 186 -10 286 -21 335 -9 39 -21 97 -26 130 -12 63 -50 189 -80
265 -39 94 -85 196 -105 227 -115 184 -194 278 -308 362 -96 73 -170 121 -183
121 -5 0 -25 9 -45 19 -48 26 -202 75 -319 102 -81 19 -129 22 -335 25 -132 1
-262 -1 -290 -6z m359 -690 c178 -29 333 -148 423 -325 57 -111 96 -275 72
-300 -5 -4 -1008 -9 -1216 -5 -36 0 14 205 82 337 76 150 225 268 365 293 65
11 206 11 274 0z"/>
<path d="M32292 3670 c-597 -599 -813 -822 -810 -836 3 -18 29 -19 818 -22
l815 -2 18 21 c16 20 17 74 17 828 0 817 -1 834 -34 829 -6 0 -377 -369 -824
-818z"/>
</g>
</svg>
