<?xml version="1.0" standalone="no"?>
<!DOCTYPE svg PUBLIC "-//W3C//DTD SVG 20010904//EN"
 "http://www.w3.org/TR/2001/REC-SVG-20010904/DTD/svg10.dtd">
<svg version="1.0" xmlns="http://www.w3.org/2000/svg"
 width="4167.000000pt" height="4167.000000pt" viewBox="0 0 4167.000000 4167.000000"
 preserveAspectRatio="xMidYMid meet">

<g transform="translate(0.000000,4167.000000) scale(0.100000,-0.100000)"
fill="#000000" stroke="none">
<path d="M0 20835 l0 -20835 20835 0 20835 0 0 20835 0 20835 -20835 0 -20835
0 0 -20835z m26760 -100 l0 -3835 -135 0 -135 0 0 3835 0 3835 135 0 135 0 0
-3835z m7364 2199 c17 -6 23 -64 8 -64 -5 0 -974 -963 -2153 -2141 -1179
-1177 -2156 -2151 -2170 -2165 l-25 -24 -788 0 c-579 0 -792 3 -802 11 -8 6
-14 19 -14 28 0 14 4303 4328 4341 4352 16 10 1578 13 1603 3z m1890 -10 c14
-14 16 -83 16 -612 l0 -597 -1588 -1588 -1588 -1588 -830 -6 c-754 -6 -830 -5
-842 10 -8 9 -12 22 -10 29 2 7 984 993 2183 2191 l2180 2177 232 0 c197 0
234 -2 247 -16z m-27957 -27 c78 -9 157 -23 175 -31 18 -9 57 -20 86 -26 48
-9 78 -21 157 -63 17 -9 45 -24 63 -32 40 -19 161 -101 182 -124 9 -9 36 -34
60 -56 63 -55 200 -227 200 -250 0 -7 8 -20 19 -29 10 -9 21 -31 25 -47 3 -17
15 -42 26 -56 11 -14 20 -34 20 -45 0 -10 11 -44 24 -76 30 -74 40 -161 40
-352 0 -183 -15 -326 -37 -360 -9 -14 -19 -45 -23 -70 -4 -25 -17 -63 -30 -86
-13 -22 -24 -48 -24 -56 0 -8 -9 -23 -19 -32 -11 -10 -23 -31 -26 -47 -4 -16
-12 -32 -18 -36 -7 -5 -31 -33 -54 -63 -43 -57 -167 -171 -219 -202 -16 -10
-36 -22 -44 -27 -8 -5 -28 -14 -43 -20 -22 -9 -26 -14 -18 -29 5 -9 26 -24 48
-31 21 -8 49 -22 63 -31 14 -9 44 -29 67 -45 66 -43 154 -161 168 -225 4 -19
16 -46 25 -60 10 -14 21 -54 25 -89 3 -36 14 -79 23 -95 15 -27 17 -89 22
-516 5 -439 7 -489 24 -525 10 -22 22 -67 26 -100 8 -52 14 -64 47 -92 97 -82
103 -89 103 -132 0 -95 -46 -103 -590 -99 l-414 3 -28 40 c-15 22 -29 54 -32
70 -3 17 -10 66 -16 110 -7 44 -16 94 -22 112 -5 17 -13 184 -18 370 -9 330
-17 442 -39 533 -5 25 -10 66 -11 91 0 49 -17 109 -30 109 -4 0 -13 13 -18 29
-10 28 -107 111 -129 111 -6 0 -37 12 -69 28 l-59 27 -595 0 -595 0 -5 -791
c-4 -626 -8 -794 -18 -806 -20 -25 -84 -30 -475 -34 l-367 -5 -25 25 -25 25 0
2089 c0 1697 2 2092 13 2106 7 10 29 22 47 26 19 5 526 7 1125 5 892 -2 1116
-6 1232 -18z m13757 -3 c14 -13 16 -50 16 -253 0 -174 -3 -242 -12 -254 -12
-15 -49 -17 -322 -22 -171 -4 -313 -8 -318 -11 -4 -3 -8 -419 -8 -925 0 -574
-4 -927 -10 -938 -5 -10 -33 -26 -62 -36 -44 -14 -93 -17 -332 -16 -250 1
-282 3 -293 18 -10 13 -13 220 -13 954 0 625 -3 940 -10 944 -6 4 -150 7 -321
8 -272 2 -312 4 -322 18 -8 11 -12 88 -12 251 0 218 1 237 19 257 l19 21 983
0 c880 0 984 -2 998 -16z m1364 -15 c19 -20 35 -50 43 -83 6 -28 20 -65 30
-82 11 -17 19 -40 19 -51 0 -11 11 -41 25 -67 14 -26 25 -55 25 -64 0 -10 9
-36 20 -57 12 -22 26 -60 32 -85 6 -25 19 -59 29 -76 11 -17 19 -40 19 -51 0
-11 11 -41 25 -67 14 -26 25 -56 25 -67 0 -11 11 -41 24 -67 13 -26 27 -63 31
-82 4 -19 16 -49 26 -66 10 -17 19 -40 19 -51 0 -11 11 -41 25 -67 14 -26 25
-56 25 -67 0 -11 11 -41 24 -67 14 -26 28 -64 32 -85 13 -74 56 -57 74 29 6
29 15 56 21 59 5 3 16 32 25 63 9 31 25 73 35 92 11 19 19 43 19 53 0 10 11
39 25 65 14 26 25 57 25 69 0 12 11 43 25 69 14 26 25 56 25 66 0 10 11 40 25
66 14 26 25 55 25 65 0 10 11 39 25 65 14 26 25 54 25 63 0 10 11 41 25 71 14
29 25 61 25 71 0 10 11 39 25 65 14 26 25 55 25 64 0 9 11 38 25 64 14 26 25
56 25 66 0 28 26 74 52 92 20 14 78 16 444 16 400 0 423 -1 445 -19 l24 -19 3
-1189 c2 -871 -1 -1195 -9 -1215 l-11 -28 -298 0 -299 0 -20 26 c-21 27 -21
32 -21 732 0 447 -3 709 -9 715 -7 7 -13 2 -20 -14 -15 -37 -41 -118 -58 -178
-8 -29 -23 -67 -34 -85 -10 -17 -19 -42 -19 -56 0 -14 -11 -47 -25 -75 -13
-27 -25 -59 -25 -70 0 -11 -12 -42 -25 -70 -14 -27 -25 -61 -25 -75 0 -14 -12
-43 -25 -65 -14 -22 -25 -52 -25 -67 0 -15 -11 -48 -25 -74 -14 -26 -25 -56
-25 -68 0 -12 -12 -43 -25 -71 -14 -27 -25 -59 -25 -70 0 -11 -12 -42 -25 -70
-14 -27 -25 -59 -25 -70 0 -11 -9 -37 -20 -57 -11 -21 -24 -57 -29 -80 -6 -24
-24 -69 -41 -100 l-32 -58 -237 0 -238 0 -29 43 c-15 23 -36 69 -45 102 -27
90 -66 199 -83 234 -9 16 -16 40 -16 53 0 13 -11 47 -25 76 -14 30 -25 61 -25
70 0 10 -12 40 -25 67 -14 28 -25 61 -25 75 0 14 -11 46 -25 72 -14 26 -25 56
-25 67 0 10 -11 43 -25 73 -14 29 -25 63 -25 75 0 12 -11 43 -25 69 -14 26
-25 55 -25 65 0 10 -11 47 -24 81 -31 84 -55 153 -70 208 -7 25 -17 45 -22 45
-5 0 -13 -284 -19 -712 -9 -611 -12 -714 -25 -726 -34 -32 -84 -37 -351 -37
l-268 0 -16 30 c-13 25 -15 172 -15 1219 l0 1190 22 15 c20 14 80 16 454 16
l432 0 30 -31z m-9282 0 c12 -10 14 -120 14 -715 0 -413 4 -704 9 -704 5 0 21
20 35 44 40 69 203 213 309 273 40 23 165 73 182 73 9 0 28 6 43 14 84 43 506
49 627 8 33 -11 75 -23 94 -27 19 -4 54 -18 79 -31 25 -13 53 -24 62 -24 9 0
30 -11 46 -25 16 -14 33 -25 38 -25 25 0 133 -86 232 -184 105 -105 147 -158
186 -230 9 -18 23 -38 32 -45 9 -8 16 -19 16 -25 0 -7 11 -27 25 -46 14 -19
25 -42 25 -52 0 -10 11 -39 24 -65 26 -52 52 -124 68 -188 5 -22 19 -71 30
-109 53 -182 52 -944 -2 -1076 -10 -25 -21 -66 -24 -92 -3 -26 -15 -64 -26
-85 -11 -21 -20 -49 -20 -63 0 -14 -11 -45 -24 -70 -13 -25 -26 -58 -30 -74
-4 -16 -16 -41 -27 -54 -10 -14 -19 -29 -19 -35 0 -6 -11 -27 -23 -46 -13 -20
-32 -49 -43 -65 -10 -16 -23 -36 -29 -45 -48 -78 -283 -311 -312 -311 -6 0
-16 -6 -22 -14 -7 -8 -31 -24 -54 -35 -23 -12 -49 -25 -57 -30 -36 -22 -148
-71 -163 -71 -9 0 -45 -10 -79 -22 -60 -22 -78 -23 -338 -23 -237 0 -279 2
-305 17 -17 9 -56 21 -87 27 -30 5 -71 19 -89 30 -19 12 -40 21 -48 21 -42 0
-232 148 -291 226 -23 31 -46 52 -50 47 -4 -4 -10 -60 -12 -123 -2 -63 -10
-125 -16 -136 -23 -43 -120 -54 -461 -54 -336 0 -335 0 -366 60 -13 25 -15
281 -15 2093 0 1953 1 2065 18 2080 24 22 34 22 450 20 269 -1 378 -5 388 -14z
m17184 6 c6 -8 9 -22 6 -32 -3 -10 -379 -391 -835 -846 -688 -688 -833 -828
-852 -825 l-24 3 -3 837 c-2 827 -2 838 18 858 20 20 33 20 849 20 712 0 830
-2 841 -15z m-19550 -1014 c36 -10 90 -22 120 -26 74 -9 195 -60 351 -147 64
-35 258 -218 259 -244 0 -6 11 -28 25 -48 14 -20 25 -45 25 -54 0 -9 10 -37
22 -62 11 -25 25 -81 31 -125 5 -44 13 -505 17 -1025 9 -1079 13 -1162 68
-1241 17 -26 41 -49 51 -52 11 -3 29 -20 41 -38 28 -44 23 -120 -9 -152 -21
-22 -26 -22 -374 -22 -338 0 -354 1 -397 21 -25 12 -54 24 -66 28 -11 3 -37
24 -58 45 -31 32 -41 52 -55 118 -20 89 -26 103 -45 103 -7 0 -51 -34 -97 -76
-46 -41 -100 -84 -119 -95 -19 -11 -53 -31 -75 -44 -80 -48 -206 -105 -233
-105 -13 0 -40 -9 -61 -20 -69 -35 -339 -54 -526 -36 -86 8 -220 44 -300 81
-27 13 -61 28 -75 34 -23 11 -45 24 -146 92 -22 14 -55 45 -74 67 -59 70 -90
109 -90 115 0 4 -11 23 -25 43 -14 20 -25 44 -25 54 0 9 -9 25 -20 35 -11 10
-22 37 -26 64 -4 25 -16 71 -28 101 -18 49 -21 76 -20 260 0 186 2 210 21 255
12 28 24 67 28 88 3 21 14 52 25 70 10 18 21 47 25 65 4 17 11 32 16 32 5 0
18 18 29 39 25 49 173 207 214 228 17 9 33 19 36 22 12 16 101 70 133 80 19 7
40 18 47 26 6 7 34 19 63 25 29 7 69 21 89 31 21 11 50 19 65 19 33 0 157 25
173 35 6 4 61 10 123 15 62 4 141 15 177 24 36 8 106 18 155 21 50 4 113 13
140 20 28 7 86 19 130 26 44 6 100 23 125 35 25 13 49 24 55 24 5 0 22 23 38
50 31 57 35 113 11 175 -9 22 -18 52 -21 67 -8 40 -78 105 -150 139 -129 61
-429 63 -573 5 -72 -29 -146 -93 -157 -134 -3 -15 -14 -37 -23 -49 -10 -13
-21 -51 -25 -88 -6 -55 -11 -68 -37 -90 l-30 -25 -383 0 c-451 0 -421 -8 -412
106 3 40 11 82 17 95 7 12 16 56 22 97 5 41 17 91 27 111 10 20 21 49 25 65 4
16 16 41 27 54 10 14 19 31 19 40 0 35 116 191 205 275 27 26 75 64 105 84 30
20 57 40 60 45 3 4 26 14 50 23 24 9 51 22 60 29 8 8 31 17 50 21 19 4 54 16
77 26 24 10 67 21 96 25 28 3 74 13 100 21 79 25 215 32 527 28 258 -3 303 -6
360 -24z m6755 4 c33 -10 85 -23 116 -30 107 -23 265 -93 369 -164 94 -63 218
-169 225 -191 4 -11 10 -20 14 -20 4 0 33 -37 64 -82 90 -130 104 -153 116
-191 7 -19 18 -41 26 -47 7 -6 17 -26 21 -43 3 -18 17 -52 30 -77 13 -25 24
-55 24 -68 0 -12 9 -40 19 -61 11 -21 23 -62 26 -92 4 -30 15 -79 25 -109 23
-66 40 -288 40 -525 0 -135 -3 -166 -16 -179 -14 -14 -123 -16 -1047 -16 -568
0 -1043 -3 -1055 -7 -27 -7 -27 -5 2 -172 19 -103 43 -162 110 -262 33 -50
124 -139 141 -139 7 0 20 -9 30 -20 10 -11 27 -22 39 -26 11 -3 39 -15 62 -25
48 -21 227 -53 299 -52 81 0 212 30 284 65 79 39 205 160 216 207 3 16 12 35
19 40 11 9 483 15 838 11 43 0 49 -26 25 -101 -12 -36 -29 -76 -38 -90 -8 -13
-21 -43 -27 -65 -7 -23 -19 -47 -27 -54 -8 -7 -15 -18 -15 -24 0 -6 -14 -31
-30 -56 -147 -226 -333 -392 -563 -502 -33 -15 -66 -28 -75 -28 -10 0 -32 -9
-49 -20 -18 -11 -59 -24 -90 -29 -32 -5 -75 -17 -97 -26 -120 -51 -675 -49
-825 3 -31 11 -78 24 -106 30 -112 24 -337 123 -391 173 -11 10 -24 19 -28 19
-33 0 -232 198 -286 285 -21 33 -44 67 -52 75 -7 9 -25 40 -39 70 -15 30 -41
85 -58 121 -17 36 -31 73 -31 83 0 9 -9 38 -21 63 -11 25 -25 71 -30 103 -5
32 -16 77 -24 101 -14 37 -31 197 -39 349 -1 25 -9 78 -16 118 -12 62 -12 79
0 120 8 26 15 79 16 117 4 122 24 297 39 325 8 15 19 55 24 90 6 34 17 73 25
86 9 12 20 44 26 70 6 26 20 58 30 72 11 13 20 32 20 41 0 10 11 32 25 51 14
19 25 41 25 51 0 9 14 33 30 54 17 21 30 42 30 47 0 5 6 15 13 23 6 7 28 33
47 56 78 99 316 299 356 299 6 0 19 9 28 19 10 11 32 23 49 27 18 4 42 14 56
22 32 22 112 50 201 72 41 10 93 24 115 30 74 23 179 29 430 25 198 -2 263 -7
310 -20z m17710 -1641 c15 -15 16 -88 10 -843 -4 -636 -8 -829 -18 -838 -9
-10 -196 -13 -840 -13 -455 -1 -832 2 -837 5 -35 22 6 65 813 876 452 454 830
827 839 827 9 1 24 -5 33 -14z"/>
<path d="M6580 22105 c-18 -24 -24 -134 -23 -485 1 -397 8 -550 27 -562 6 -4
263 -8 571 -8 l560 0 90 25 c49 14 102 25 116 25 15 0 38 9 52 20 14 11 30 20
35 20 12 0 92 73 92 84 0 5 11 21 25 38 14 16 25 38 25 48 0 10 12 41 26 69
25 48 26 57 26 211 0 153 -1 162 -26 210 -14 27 -26 58 -26 69 0 11 -9 30 -20
43 -10 12 -31 38 -45 55 -26 33 -108 93 -125 93 -5 0 -43 11 -83 25 l-73 24
-608 3 c-397 2 -610 0 -616 -7z"/>
<path d="M14388 21121 c-31 -5 -72 -17 -90 -28 -19 -11 -45 -23 -59 -26 -58
-15 -239 -215 -239 -264 0 -8 -9 -26 -19 -41 -11 -15 -24 -51 -30 -80 -6 -29
-17 -65 -25 -80 -7 -15 -16 -65 -20 -112 -3 -47 -8 -114 -11 -150 -3 -36 -9
-81 -15 -100 -13 -46 -13 -116 1 -142 6 -12 15 -72 20 -135 7 -77 16 -127 28
-151 10 -21 22 -53 26 -72 4 -19 13 -42 21 -50 7 -9 20 -31 29 -50 22 -48 57
-95 120 -161 52 -55 157 -129 183 -129 7 0 34 -9 59 -21 55 -25 237 -37 323
-21 131 25 178 50 281 153 57 57 99 107 103 124 4 16 16 39 26 53 11 13 22 40
26 61 4 20 15 50 25 66 10 17 21 51 25 75 3 25 15 81 27 125 17 67 20 110 19
265 -1 139 -5 197 -17 235 -8 28 -20 83 -25 124 -5 40 -18 87 -29 105 -10 17
-21 47 -25 67 -4 20 -15 44 -26 54 -11 10 -20 24 -20 30 0 18 -66 112 -98 141
-41 36 -98 72 -167 105 -59 28 -71 29 -216 34 -85 2 -180 0 -211 -4z"/>
<path d="M11461 20104 c-12 -9 -44 -22 -69 -29 -26 -7 -64 -20 -84 -29 -20 -8
-63 -19 -95 -22 -32 -4 -100 -17 -152 -30 -51 -13 -106 -24 -122 -24 -15 0
-52 -9 -81 -19 -29 -11 -69 -23 -88 -26 -19 -4 -50 -17 -70 -29 -19 -12 -48
-28 -64 -36 -85 -43 -157 -176 -164 -305 -3 -62 0 -80 28 -146 37 -89 85 -135
176 -171 118 -46 402 -20 483 43 13 11 32 19 42 19 10 0 21 5 24 10 4 6 37 31
75 56 104 68 170 153 198 254 11 40 17 116 19 278 4 209 3 222 -14 222 -10 0
-29 -7 -42 -16z"/>
<path d="M17740 21160 c-14 -4 -38 -15 -55 -24 -16 -9 -36 -16 -43 -16 -18 0
-88 -50 -131 -92 -45 -44 -106 -127 -116 -157 -4 -14 -18 -45 -31 -69 -13 -25
-24 -57 -24 -72 0 -15 -7 -44 -15 -63 -8 -20 -15 -51 -15 -69 l0 -33 597 2
598 2 3 32 c2 17 -6 53 -17 80 -12 26 -21 58 -21 71 0 13 -9 39 -19 58 -10 19
-28 53 -39 75 -28 59 -134 169 -195 203 -28 16 -87 41 -129 56 -67 23 -91 26
-200 25 -68 0 -134 -4 -148 -9z"/>
</g>
</svg>
