<?xml version="1.0" standalone="no"?>
<!DOCTYPE svg PUBLIC "-//W3C//DTD SVG 20010904//EN"
 "http://www.w3.org/TR/2001/REC-SVG-20010904/DTD/svg10.dtd">
<svg version="1.0" xmlns="http://www.w3.org/2000/svg"
 width="112.000000pt" height="63.000000pt" viewBox="0 0 112.000000 63.000000"
 preserveAspectRatio="xMidYMid meet">

<g transform="translate(0.000000,63.000000) scale(0.100000,-0.100000)"
fill="#000000" stroke="none">
<path d="M315 320 l-310 -310 115 0 115 0 310 310 310 310 -115 0 -115 0 -310
-310z"/>
<path d="M735 320 l-310 -310 120 0 120 0 223 223 222 222 0 88 0 87 -33 0
c-29 0 -62 -30 -342 -310z"/>
<path d="M180 498 l0 -123 120 120 c66 66 120 121 120 122 0 2 -54 3 -120 3
l-120 0 0 -122z"/>
<path d="M985 130 l-120 -120 123 0 122 0 0 120 c0 66 -1 120 -3 120 -1 0 -56
-54 -122 -120z"/>
</g>
</svg>
